<svg t="1681831383628" class="icon" viewBox="0 0 1280 1024" version="1.1" xmlns="http://www.w3.org/2000/svg" p-id="1783" width="300" height="300"><path d="M25.6 0h1024v1024H25.6z" fill="#666666" fill-opacity="0" p-id="1784"></path><path d="M414.72 373.76c10.24-10.24 28.16-10.24 40.96 0s10.24 28.16 0 40.96c-25.6 25.6-40.96 61.44-40.96 97.28s15.36 71.68 40.96 97.28c10.24 10.24 10.24 28.16 0 40.96s-28.16 10.24-40.96 0C378.88 614.4 358.4 563.2 358.4 512c0-51.2 20.48-99.84 56.32-138.24z" fill="#E91643" p-id="1785"></path><path d="M337.92 296.96c10.24-10.24 28.16-10.24 40.96 0s10.24 28.16 0 40.96C332.8 384 307.2 448 307.2 512c0 66.56 25.6 128 71.68 174.08 7.68 7.68 10.24 17.92 7.68 28.16s-10.24 17.92-20.48 20.48-20.48 0-28.16-7.68C281.6 670.72 248.32 591.36 248.32 512c0-81.92 33.28-158.72 89.6-215.04z" fill="#0014BA" p-id="1786"></path><path d="M660.48 373.76C696.32 412.16 716.8 460.8 716.8 512c0 51.2-20.48 99.84-56.32 138.24-10.24 10.24-28.16 10.24-40.96 0s-10.24-28.16 0-40.96c25.6-25.6 40.96-61.44 40.96-97.28s-15.36-71.68-40.96-97.28c-7.68-7.68-10.24-17.92-7.68-28.16s10.24-17.92 20.48-20.48c10.24-2.56 20.48 2.56 28.16 7.68z" fill="#E91643" p-id="1787"></path><path d="M737.28 296.96c56.32 56.32 89.6 135.68 89.6 215.04 0 81.92-33.28 158.72-89.6 215.04-10.24 10.24-28.16 10.24-40.96 0s-10.24-28.16 0-40.96C742.4 640 768 576 768 512c0-66.56-25.6-128-71.68-174.08-7.68-7.68-10.24-17.92-7.68-28.16s10.24-17.92 20.48-20.48 20.48 0 28.16 7.68z" fill="#0014BA" p-id="1788"></path><path d="M537.6 512m-56.32 0a56.32 56.32 0 1 0 112.64 0 56.32 56.32 0 1 0-112.64 0Z" fill="#E91643" p-id="1789"></path><path d="M537.6 117.76C320 117.76 143.36 294.4 143.36 512S320 906.24 537.6 906.24 931.84 729.6 931.84 512 755.2 117.76 537.6 117.76z m0 732.16c-186.88 0-337.92-151.04-337.92-337.92S350.72 174.08 537.6 174.08 875.52 325.12 875.52 512 724.48 849.92 537.6 849.92z" fill="#0014BA" p-id="1790"></path></svg>
